<?xml version="1.0" standalone="no"?>
<!DOCTYPE svg PUBLIC "-//W3C//DTD SVG 20010904//EN" "http://www.w3.org/TR/2001/REC-SVG-20010904/DTD/svg10.dtd">
<!-- Created using Krita: https://krita.org -->
<svg xmlns="http://www.w3.org/2000/svg"
    width="120pt"
    height="55.2pt"
    viewBox="0 10 120 55.2">
<defs/>
<g id="group0" transform="translate(-2.34531249999999, 13.6075312429114)" fill="none">
  <path id="shape0" transform="matrix(1.06254962312333 0 0 1.06254962312333 47.7053125 0)" fill="currentColor" stroke-opacity="0" stroke="currentColor" stroke-width="0" stroke-linecap="square" stroke-linejoin="bevel" d="M27.7041 16.7L26.0041 15L26.0041 13.4C26.0041 10.1 24.7041 7.2 22.5041 4.9L21.0041 11.6C20.9041 12.1 20.5041 12.4 20.0041 12.4C19.9041 12.4 19.9041 12.4 19.8041 12.4C19.3041 12.3 18.9041 11.7 19.0041 11.2L21.0041 2.3C21.0041 2 20.8041 1.6 20.5041 1.5C16.5041 -0.5 11.6041 -0.5 7.60405 1.5C7.20405 1.7 7.00405 2 7.00405 2.3L9.00405 11.2C9.10405 11.7 8.80405 12.3 8.20405 12.4C8.10405 12.4 8.10405 12.4 8.00405 12.4C7.50405 12.4 7.10405 12.1 7.00405 11.6L5.50405 4.9C3.30405 7.2 2.00405 10.1 2.00405 13.4L2.00405 15L0.304052 16.7C0.00405184 17 -0.0959482 17.4 0.104052 17.8C0.204052 18.2 0.604052 18.4 1.00405 18.4L27.0041 18.4C27.4041 18.4 27.8041 18.2 27.9041 17.8C28.1041 17.4 28.0041 17 27.7041 16.7Z" />
  <path id="shape1" transform="matrix(1.06254962312333 0 0 1.06254962312333 52.5973460426407 21.5697573494037)" fill="currentColor" stroke-opacity="0" stroke="currentColor" stroke-width="0" stroke-linecap="square" stroke-linejoin="bevel" d="M13.3 0.1C13.4 0.4 13.4 0.8 13.4 1.1C13.4 3.3 11.6 5.1 9.4 5.1C7.2 5.1 5.4 3.3 5.4 1.1C5.4 0.8 5.5 0.4 5.5 0.1L0.1 0.1C0.1 0.4 0 0.8 0 1.1C0 1.8 0.1 2.5 0.3 3.3C0.4 3.8 0.9 4.1 1.4 4C2 3.9 2.6 4.2 3 4.8C3.4 5.4 3.3 6 2.9 6.5C2.6 6.9 2.6 7.5 3 7.8C4.1 8.8 5.4 9.6 6.8 10C7.3 10.1 7.8 9.9 8 9.4C8.2 8.8 8.8 8.4 9.4 8.4C10 8.4 10.6 8.8 10.8 9.4C11 9.8 11.3 10 11.7 10C11.8 10 11.9 10 12 10C13.4 9.6 14.7 8.8 15.8 7.8C16.2 7.4 16.2 6.9 15.9 6.5C15.5 6 15.5 5.3 15.8 4.8C16.1 4.3 16.7 3.9 17.4 4C17.9 4.1 18.4 3.7 18.5 3.2C18.7 2.5 18.8 1.7 18.8 1C18.8 0.7 18.8 0.3 18.7 0L13.3 0Z" /><text id="shape2"  transform="translate(2.9453125, 44.7524687570886)" fill="currentColor" stroke-opacity="0" stroke="currentColor" stroke-width="0" stroke-linecap="square" stroke-linejoin="bevel" font-family="BM Dohyeon" font-size="10" font-size-adjust="0.403909" font-stretch="normal" font-weight="700" letter-spacing="1" word-spacing="0"><tspan x="0">TECH-PRIEZIURA.LT</tspan></text>
 </g>
</svg>
